<?xml version="1.0" encoding="UTF-8"?>
<svg version="1.1" xmlns="http://www.w3.org/2000/svg" width="225" height="225">
<path d="M0 0 C74.25 0 148.5 0 225 0 C225 74.25 225 148.5 225 225 C150.75 225 76.5 225 0 225 C0 150.75 0 76.5 0 0 Z " fill="#010101" transform="translate(0,0)"/>
<path d="M0 0 C58.41 0 116.82 0 177 0 C177.103125 18.315 177.20625 36.63 177.3125 55.5 C177.35802002 61.27435547 177.40354004 67.04871094 177.45043945 72.99804688 C177.47302246 80.07128906 177.47302246 80.07128906 177.47721863 83.38684082 C177.48487623 85.69320503 177.50241974 87.99954972 177.52787781 90.30578613 C177.56458901 93.80772457 177.56952649 97.30844424 177.56762695 100.81054688 C177.58561749 101.8310186 177.60360804 102.85149033 177.62214375 103.90288544 C177.57622341 110.24628345 176.64626933 115.38212319 172 120 C167.67811459 122.64667359 164.43794101 123.37788033 159.4032135 123.39440918 C157.43710365 123.41143387 157.43710365 123.41143387 155.43127441 123.42880249 C153.99072204 123.42615952 152.55017024 123.42318836 151.10961914 123.41992188 C149.58315918 123.42726622 148.05670477 123.43585352 146.53025818 123.44558716 C142.39386241 123.46777225 138.25766602 123.4707354 134.12121892 123.46883965 C130.66446814 123.46871982 127.20775942 123.47728886 123.75102037 123.48561716 C115.594483 123.50483999 107.43804796 123.50773896 99.28149414 123.50097656 C90.87438134 123.4943346 82.46770715 123.51720877 74.06068331 123.55429029 C66.83500934 123.5850016 59.60947638 123.59634584 52.38373846 123.59245348 C48.0714521 123.59038765 43.75950719 123.59583952 39.44728279 123.62034607 C35.39149169 123.64263488 31.33641324 123.64071824 27.28061867 123.62041855 C25.79515782 123.61701235 24.3096488 123.62208094 22.82425308 123.63640213 C10.2259701 123.74945333 10.2259701 123.74945333 5.74876404 120.77404785 C0.60073781 115.5786688 -0.34218226 112.40599087 -0.37328625 105.21276379 C-0.36249192 104.17212937 -0.3516976 103.13149496 -0.34057617 102.05932617 C-0.34111858 100.37830669 -0.34111858 100.37830669 -0.34167194 98.66332722 C-0.33943474 95.03969199 -0.31659735 91.41652105 -0.29296875 87.79296875 C-0.28855732 85.55424218 -0.28549714 83.31551251 -0.28381348 81.07678223 C-0.2680916 72.7803076 -0.22620793 64.48389923 -0.1875 56.1875 C-0.125625 37.645625 -0.06375 19.10375 0 0 Z " fill="#FDFDFD" transform="translate(24,82)"/>
<path d="M0 0 C74.25 0 148.5 0 225 0 C225 74.25 225 148.5 225 225 C150.75 225 76.5 225 0 225 C0 150.75 0 76.5 0 0 Z M14.6875 32.4375 C8.07853763 39.99330512 8.55802864 48.23332334 8.58007812 57.77270508 C8.57273128 59.27474089 8.56414326 60.77677107 8.55441284 62.27879333 C8.53225065 66.34508656 8.52926356 70.41117681 8.53116035 74.47752213 C8.53128032 77.87936332 8.5227053 81.28116192 8.51438284 84.68299121 C8.4951671 92.71357595 8.49225796 100.74405677 8.49902344 108.7746582 C8.50566016 117.04143019 8.48281073 125.30775553 8.44570971 133.57443696 C8.41495322 140.68722811 8.40365919 147.79987604 8.40754652 154.9127323 C8.40960821 159.15411988 8.40422527 163.39515992 8.37965393 167.63648415 C8.35729107 171.62828049 8.35934282 175.61935407 8.37958145 179.61115456 C8.38297497 181.06955534 8.37797438 182.52800569 8.36359787 183.98633957 C8.26956927 194.2382847 9.76819925 201.27874557 15.88671875 209.55078125 C16.77810547 210.42283203 16.77810547 210.42283203 17.6875 211.3125 C18.26886719 211.90675781 18.85023437 212.50101563 19.44921875 213.11328125 C28.52095085 219.82330668 36.687754 220.72360455 47.67993164 220.63110352 C49.24314687 220.63625062 50.80635627 220.64353783 52.36955261 220.65278625 C56.58865969 220.67120657 60.80712998 220.65842216 65.02621007 220.63869596 C69.45558535 220.6222331 73.88492272 220.63113279 78.3143158 220.63621521 C85.7494415 220.6407272 93.18431488 220.62492084 100.61938477 220.59692383 C109.19918946 220.56486415 117.77853955 220.56489515 126.35837656 220.5821386 C134.63443165 220.59803459 142.91032105 220.59125117 151.18636894 220.57420158 C154.698536 220.56735277 158.21056938 220.5683411 161.72273445 220.57574654 C165.86226794 220.58344111 170.00128766 220.57118066 174.14073372 220.54389763 C175.65436275 220.53704625 177.16804007 220.53688076 178.68166733 220.54411316 C186.8935733 220.57881277 193.76982985 220.24852623 201 216 C202.546875 215.195625 202.546875 215.195625 204.125 214.375 C209.99911444 209.52247068 213.91964016 203.30165551 216 196 C216.30742027 192.86317061 216.30742027 192.86317061 216.28088379 189.54402161 C216.29230408 188.26430481 216.30372437 186.98458801 216.31549072 185.66609192 C216.317981 184.26022378 216.32023129 182.8543552 216.32226562 181.44848633 C216.33153119 179.95807407 216.34158174 178.46766652 216.35235596 176.9772644 C216.37852124 172.93775545 216.39147779 168.89831286 216.40037727 164.85873246 C216.40625267 162.33088376 216.41446491 159.80305291 216.42338562 157.27521324 C216.45071491 149.35427178 216.47005778 141.43337147 216.4777894 133.51238614 C216.48674356 124.39086354 216.52181403 115.26994144 216.57979059 106.14860135 C216.62312805 99.08338646 216.64320348 92.01833987 216.64587164 84.95299357 C216.64796054 80.73996545 216.65961916 76.52750258 216.69551086 72.31461525 C216.72865375 68.34739358 216.73269822 64.38115649 216.71523285 60.41384506 C216.71370158 58.96551931 216.72225198 57.51713863 216.74214935 56.06894875 C216.88299383 45.17048595 214.79793437 37.65035926 207.69140625 29.28125 C200.39725217 23.17825135 195.55456848 20.84223623 186 21 C185.97421875 22.30195313 185.9484375 23.60390625 185.921875 24.9453125 C185.86557299 26.67190756 185.80822613 28.39846876 185.75 30.125 C185.73582031 30.9809375 185.72164062 31.836875 185.70703125 32.71875 C185.49339511 38.27328956 184.6913132 41.59489695 181 46 C176.86367854 49.65535385 173.62593013 50.64981362 168.24609375 50.38671875 C163.69223024 49.60266225 160.35245499 47.61143573 157.34765625 44.03125 C155.33333988 39.50049781 155.42871356 35.09291584 155.3125 30.1875 C155.209375 26.825625 155.10625 23.46375 155 20 C147.41 20 139.82 20 132 20 C131.83001022 26.31132596 131.83001022 26.31132596 131.70214844 32.62353516 C131.48800898 38.1990505 130.7348182 41.59800433 127 46 C122.86367854 49.65535385 119.62593013 50.64981362 114.24609375 50.38671875 C109.69223024 49.60266225 106.35245499 47.61143573 103.34765625 44.03125 C101.33333988 39.50049781 101.42871356 35.09291584 101.3125 30.1875 C101.209375 26.825625 101.10625 23.46375 101 20 C93.41 20 85.82 20 78 20 C77.83001022 26.31132596 77.83001022 26.31132596 77.70214844 32.62353516 C77.48795309 38.20050567 76.73127668 41.59406443 73 46 C68.76760398 49.82931068 65.11465157 50.79152721 59.54296875 50.59765625 C54.97971542 49.52518657 52.0050546 46.46797424 49 43 C47.79729036 40.59458071 47.79683337 38.89633409 47.68359375 36.2109375 C47.64169922 35.26992188 47.59980469 34.32890625 47.55664062 33.359375 C47.51732422 32.37453125 47.47800781 31.3896875 47.4375 30.375 C47.39431641 29.38242187 47.35113281 28.38984375 47.30664062 27.3671875 C47.20038931 24.91160162 47.09835036 22.45591297 47 20 C33.44671932 19.43018798 23.96944323 22.28893799 14.6875 32.4375 Z " fill="#FCFCFC" transform="translate(0,0)"/>
<path d="M0 0 C0.94166016 -0.02384766 1.88332031 -0.04769531 2.85351562 -0.07226562 C7.4235943 -0.06259009 9.85849715 0.07794941 13.6953125 2.71875 C15.86211761 6.01882137 16.15329287 7.71355932 16 11.625 C15.97808594 12.64722656 15.95617187 13.66945312 15.93359375 14.72265625 C15.56753939 17.52393542 15.11183726 19.22023592 13.5625 21.5625 C9.20431534 24.46795644 5.25212547 23.93060407 0.125 23.9375 C-1.30682617 23.97423828 -1.30682617 23.97423828 -2.76757812 24.01171875 C-9.6291749 24.04052881 -9.6291749 24.04052881 -13.06640625 22.0078125 C-14.98047043 18.59412538 -14.96818115 15.95900641 -14.9375 12.0625 C-14.95296875 10.09796875 -14.95296875 10.09796875 -14.96875 8.09375 C-14.4375 4.5625 -14.4375 4.5625 -13.05859375 2.12890625 C-8.87976124 -0.36842883 -4.77511037 -0.05533529 0 0 Z " fill="#070707" transform="translate(131.4375,127.4375)"/>
<path d="M0 0 C0.94166016 -0.02384766 1.88332031 -0.04769531 2.85351562 -0.07226562 C7.4235943 -0.06259009 9.85849715 0.07794941 13.6953125 2.71875 C15.86211761 6.01882137 16.15329287 7.71355932 16 11.625 C15.97808594 12.64722656 15.95617187 13.66945312 15.93359375 14.72265625 C15.56753939 17.52393542 15.11183726 19.22023592 13.5625 21.5625 C9.20431534 24.46795644 5.25212547 23.93060407 0.125 23.9375 C-1.30682617 23.97423828 -1.30682617 23.97423828 -2.76757812 24.01171875 C-9.6291749 24.04052881 -9.6291749 24.04052881 -13.06640625 22.0078125 C-14.98047043 18.59412538 -14.96818115 15.95900641 -14.9375 12.0625 C-14.95296875 10.09796875 -14.95296875 10.09796875 -14.96875 8.09375 C-14.4375 4.5625 -14.4375 4.5625 -13.05859375 2.12890625 C-8.87976124 -0.36842883 -4.77511037 -0.05533529 0 0 Z " fill="#070707" transform="translate(54.4375,127.4375)"/>
<path d="M0 0 C1.33417969 -0.01643555 1.33417969 -0.01643555 2.6953125 -0.03320312 C6.74367963 0.01211442 9.43877825 0.27762668 13.0859375 2.12890625 C15.73909536 5.50220696 15.66686227 7.80929319 15.625 12.0625 C15.63789063 13.3721875 15.65078125 14.681875 15.6640625 16.03125 C15 19.5625 15 19.5625 13.0859375 21.99609375 C8.69138361 24.22674705 4.86271388 24.184903 0 24.125 C-0.88945312 24.14884766 -1.77890625 24.17269531 -2.6953125 24.19726562 C-7.11336919 24.18737445 -9.37561144 23.99324907 -13.0859375 21.43359375 C-15.35514504 18.02978244 -15.67249839 16.12836244 -15.625 12.0625 C-15.63789063 10.9590625 -15.65078125 9.855625 -15.6640625 8.71875 C-13.82647691 -0.01518623 -7.55517944 -0.20256641 0 0 Z " fill="#060606" transform="translate(170,127.4375)"/>
<path d="M0 0 C1.33417969 -0.01643555 1.33417969 -0.01643555 2.6953125 -0.03320312 C6.76593927 0.01236359 9.43321721 0.26834691 13.0859375 2.1640625 C15.65410885 5.38213844 15.6685991 7.41476462 15.625 11.5 C15.63789062 12.70527344 15.65078125 13.91054687 15.6640625 15.15234375 C14.79599808 19.61010984 13.75864297 21.00757433 10 23.5625 C6.64363407 24.27131393 3.41928963 24.26183238 0 24.1875 C-0.88945313 24.20683594 -1.77890625 24.22617188 -2.6953125 24.24609375 C-7.10737302 24.21316793 -9.38505267 23.98751423 -13.0859375 21.4296875 C-15.35669365 18.02818748 -15.67248602 16.12730293 -15.625 12.0625 C-15.63789062 10.9590625 -15.65078125 9.855625 -15.6640625 8.71875 C-13.82647691 -0.01518623 -7.55517944 -0.20256641 0 0 Z " fill="#060606" transform="translate(93,127.4375)"/>
<path d="M0 0 C1.33417969 -0.01643555 1.33417969 -0.01643555 2.6953125 -0.03320312 C6.74485596 0.01212759 9.44067732 0.27894956 13.08984375 2.12890625 C15.74190981 5.50771434 15.63368875 7.80792526 15.5625 12.0625 C15.56378906 13.3721875 15.56507813 14.681875 15.56640625 16.03125 C15 19.5625 15 19.5625 13.6171875 21.99609375 C9.44146629 24.49529406 5.33560816 24.18031209 0.5625 24.125 C-0.37916016 24.14884766 -1.32082031 24.17269531 -2.29101562 24.19726562 C-6.83899301 24.18763688 -9.29406952 24.04401704 -13.12109375 21.43359375 C-15.34737069 18.03169447 -15.67222835 16.10524639 -15.625 12.0625 C-15.63789063 10.9590625 -15.65078125 9.855625 -15.6640625 8.71875 C-13.82647691 -0.01518623 -7.55517944 -0.20256641 0 0 Z " fill="#060606" transform="translate(170,96.4375)"/>
<path d="M0 0 C1.33417969 -0.02900391 1.33417969 -0.02900391 2.6953125 -0.05859375 C7.13080619 -0.02549305 9.38500403 0.19481342 13.09375 2.7890625 C15.29276567 6.06054892 15.61956123 7.71933302 15.5 11.625 C15.4896875 12.635625 15.479375 13.64625 15.46875 14.6875 C14.94256449 17.98492921 13.9568572 19.93911757 12 22.625 C8.24737357 24.50131321 3.75497651 23.89620023 -0.375 23.9375 C-1.3340625 23.96650391 -2.293125 23.99550781 -3.28125 24.02539062 C-10.23199234 24.08831517 -10.23199234 24.08831517 -13.62890625 22.0390625 C-15.47125258 18.79527323 -15.56647038 16.40774266 -15.5625 12.6875 C-15.58441406 11.48222656 -15.60632813 10.27695313 -15.62890625 9.03515625 C-15 5.625 -15 5.625 -13.08984375 2.72265625 C-8.71761883 -0.24559253 -5.1698464 -0.11238797 0 0 Z " fill="#070707" transform="translate(132,96.375)"/>
<path d="M0 0 C1.33417969 -0.01643555 1.33417969 -0.01643555 2.6953125 -0.03320312 C6.74485596 0.01212759 9.44067732 0.27894956 13.08984375 2.12890625 C15.74190981 5.50771434 15.63368875 7.80792526 15.5625 12.0625 C15.56378906 13.3721875 15.56507812 14.681875 15.56640625 16.03125 C15 19.5625 15 19.5625 13.62109375 22.00390625 C9.42791607 24.49731593 5.28103071 24.10055085 0.5 24 C-0.45003906 24.00708984 -1.40007812 24.01417969 -2.37890625 24.02148438 C-10.41184807 23.94804679 -10.41184807 23.94804679 -14 20.5625 C-15.04359696 17.43170913 -15.26834688 14.97733851 -15.375 11.6875 C-15.42398438 10.65882812 -15.47296875 9.63015625 -15.5234375 8.5703125 C-15 5.5625 -15 5.5625 -13.1015625 2.71484375 C-8.72230021 -0.32416572 -5.20709209 -0.13961044 0 0 Z " fill="#060606" transform="translate(93,96.4375)"/>
<path d="M0 0 C0.94166016 -0.02384766 1.88332031 -0.04769531 2.85351562 -0.07226562 C7.40007293 -0.06263989 9.85826271 0.08361864 13.6875 2.6875 C15.92397427 6.11676055 16.20515423 8.05599409 16.125 12.125 C16.12628906 13.24003906 16.12757813 14.35507813 16.12890625 15.50390625 C15.43932581 19.22764063 14.48364041 20.21981246 11.5625 22.5625 C9.04467773 23.08007812 9.04467773 23.08007812 6.24609375 23.09375 C4.72918945 23.10148437 4.72918945 23.10148437 3.18164062 23.109375 C2.13169922 23.09390625 1.08175781 23.0784375 0 23.0625 C-1.05380859 23.07796875 -2.10761719 23.0934375 -3.19335938 23.109375 C-4.20333984 23.10421875 -5.21332031 23.0990625 -6.25390625 23.09375 C-7.17631104 23.08923828 -8.09871582 23.08472656 -9.04907227 23.08007812 C-11.4375 22.5625 -11.4375 22.5625 -13.234375 20.73632812 C-14.95050595 17.63559151 -14.87126959 15.08400951 -14.875 11.5625 C-14.90400391 9.7371875 -14.90400391 9.7371875 -14.93359375 7.875 C-14.4375 4.5625 -14.4375 4.5625 -13.0625 2.16015625 C-8.88841542 -0.38032082 -4.79044359 -0.05551298 0 0 Z " fill="#020202" transform="translate(131.4375,158.4375)"/>
<path d="M0 0 C0.89783203 0.00580078 1.79566406 0.01160156 2.72070312 0.01757812 C10.2635799 0.1577803 10.2635799 0.1577803 13.9375 2.4375 C15.40711466 5.37672933 15.14669862 8.04158972 15.1875 11.3125 C15.21328125 12.54742187 15.2390625 13.78234375 15.265625 15.0546875 C14.90858907 18.73555789 14.49491554 19.86037479 11.9375 22.4375 C9.53320313 22.93920898 9.53320313 22.93920898 6.71875 22.93359375 C5.70425781 22.93423828 4.68976563 22.93488281 3.64453125 22.93554688 C2.58621094 22.91556641 1.52789062 22.89558594 0.4375 22.875 C-1.14998047 22.88563477 -1.14998047 22.88563477 -2.76953125 22.89648438 C-10.56615293 22.83209042 -10.56615293 22.83209042 -12.82617188 21.03540039 C-15.23695778 17.91956434 -15.31274844 15.5162889 -15.4375 11.625 C-15.48648438 10.58730469 -15.53546875 9.54960937 -15.5859375 8.48046875 C-15.0625 5.4375 -15.0625 5.4375 -13.16796875 2.578125 C-8.76463351 -0.45712998 -5.2187842 -0.19189473 0 0 Z " fill="#010101" transform="translate(93.0625,158.5625)"/>
<path d="M0 0 C0.94166016 -0.02384766 1.88332031 -0.04769531 2.85351562 -0.07226562 C7.4235943 -0.06259009 9.85849715 0.07794941 13.6953125 2.71875 C15.86211761 6.01882137 16.15329287 7.71355932 16 11.625 C15.97808594 12.64722656 15.95617187 13.66945312 15.93359375 14.72265625 C15.57135777 17.49471472 15.07566596 19.23082435 13.5625 21.5625 C9.5600102 23.5637449 4.5257983 22.83511361 0.125 22.875 C-1.46924805 22.91850586 -1.46924805 22.91850586 -3.09570312 22.96289062 C-4.62420898 22.97545898 -4.62420898 22.97545898 -6.18359375 22.98828125 C-7.58629517 23.01015503 -7.58629517 23.01015503 -9.01733398 23.0324707 C-11.4375 22.5625 -11.4375 22.5625 -13.23876953 20.74291992 C-14.94591395 17.63772505 -14.8712694 15.08418419 -14.875 11.5625 C-14.90400391 9.7371875 -14.90400391 9.7371875 -14.93359375 7.875 C-14.4375 4.5625 -14.4375 4.5625 -13.0625 2.16015625 C-8.88841542 -0.38032082 -4.79044359 -0.05551298 0 0 Z " fill="#020202" transform="translate(54.4375,158.4375)"/>
<path d="M0 0 C3.85865338 1.10247239 5.07453153 1.87365185 7.5 5 C8.00170898 7.9609375 8.00170898 7.9609375 7.99609375 11.375 C7.99673828 12.60734375 7.99738281 13.8396875 7.99804688 15.109375 C7.97806641 16.39328125 7.95808594 17.6771875 7.9375 19 C7.94458984 20.28390625 7.95167969 21.5678125 7.95898438 22.890625 C7.88693193 33.48787626 7.88693193 33.48787626 4.5 37 C2.59765625 37.78515625 2.59765625 37.78515625 0.5625 38.0625 C-0.10652344 38.17722656 -0.77554688 38.29195312 -1.46484375 38.41015625 C-3.5 38 -3.5 38 -5.59399414 35.89257812 C-7.88911994 32.40946676 -8.01518862 30.44984909 -8.03125 26.30859375 C-8.03640625 25.03435547 -8.0415625 23.76011719 -8.046875 22.44726562 C-8.03849609 21.78895752 -8.03011719 21.13064941 -8.02148438 20.45239258 C-8.00001649 18.43904667 -8.02133191 16.42925297 -8.046875 14.41601562 C-8.04171875 13.14306641 -8.0365625 11.87011719 -8.03125 10.55859375 C-8.02673828 9.39642334 -8.02222656 8.23425293 -8.01757812 7.03686523 C-7.15544533 1.97834173 -5.11776776 0 0 0 Z " fill="#080808" transform="translate(170.5,5)"/>
<path d="M0 0 C4.46745061 1.32368907 4.46745061 1.32368907 6.375 4 C6.76318359 6.93920898 6.76318359 6.93920898 6.7734375 10.49609375 C6.77730469 11.77677734 6.78117187 13.05746094 6.78515625 14.37695312 C6.77887207 15.043479 6.77258789 15.71000488 6.76611328 16.39672852 C6.75008068 18.42728194 6.7659519 20.45583722 6.78515625 22.48632812 C6.78128906 23.76830078 6.77742188 25.05027344 6.7734375 26.37109375 C6.77005371 27.54599365 6.76666992 28.72089355 6.76318359 29.93139648 C6.33946607 33.28089681 5.76771707 34.65544217 3.375 37 C0 38.0625 0 38.0625 -3.625 38 C-6.32581055 36.36302617 -7.21204577 35.72507887 -8.625 33 C-9.38224887 28.32566712 -9.32188739 23.72539768 -9.25 19 C-9.26933594 17.72898437 -9.28867187 16.45796875 -9.30859375 15.1484375 C-9.25415549 4.8051681 -9.25415549 4.8051681 -6.3125 1.625 C-3.625 0 -3.625 0 0 0 Z " fill="#040404" transform="translate(63.625,5)"/>
<path d="M0 0 C3.77502657 1.18843429 4.4837446 1.70589064 6.375 5.0625 C6.76318359 8.0234375 6.76318359 8.0234375 6.7734375 11.4375 C6.77730469 12.66984375 6.78117187 13.9021875 6.78515625 15.171875 C6.77355469 16.45578125 6.76195313 17.7396875 6.75 19.0625 C6.76160156 20.34640625 6.77320312 21.6303125 6.78515625 22.953125 C6.78128906 24.18546875 6.77742188 25.4178125 6.7734375 26.6875 C6.77005371 27.81414063 6.76666992 28.94078125 6.76318359 30.1015625 C6.33290098 33.38361758 5.72093571 34.75791133 3.375 37.0625 C-0.34726417 38.07766295 -2.52422611 38.64185468 -6 36.8125 C-10.27890553 32.20444789 -8.93279161 24.56517955 -9 18.6875 C-9.03738281 17.45515625 -9.07476562 16.2228125 -9.11328125 14.953125 C-9.21217542 4.82196686 -9.21217542 4.82196686 -6.328125 1.71484375 C-3.625 0.0625 -3.625 0.0625 0 0 Z " fill="#060606" transform="translate(117.625,4.9375)"/>
</svg>
